<svg width="301" height="286" viewBox="0 0 301 286" fill="none" xmlns="http://www.w3.org/2000/svg">
<path d="M142.999 284.848C168.685 284.848 193.889 277.885 215.928 264.701C237.967 251.516 256.015 232.604 268.15 209.979L167.067 155.819C164.733 160.17 161.262 163.807 157.024 166.343C152.786 168.878 147.939 170.217 142.999 170.217V284.848Z" fill="url(#paint0_linear_1_1473)" stroke="url(#paint1_linear_1_1473)"/>
<path d="M268.15 209.979C270.793 205.051 273.143 199.971 275.186 194.766L168.419 152.894C168.027 153.895 167.575 154.871 167.066 155.819L268.15 209.979Z" fill="url(#paint2_linear_1_1473)" stroke="url(#paint3_linear_1_1473)"/>
<path d="M275.187 194.766C288.071 161.948 288.273 125.513 275.755 92.5546L168.529 133.238C170.937 139.576 170.898 146.583 168.42 152.894L275.187 194.766Z" fill="url(#paint4_linear_1_1473)" stroke="url(#paint5_linear_1_1473)"/>
<path d="M254.054 54.4798C237.358 33.5378 215.075 17.7439 189.779 8.92247C164.483 0.101068 137.206 -1.38788 111.099 4.62766L136.865 116.328C141.885 115.171 147.131 115.458 151.996 117.154C156.86 118.851 161.145 121.888 164.356 125.915L254.054 54.4798Z" fill="url(#paint6_linear_1_1473)" stroke="url(#paint7_linear_1_1473)"/>
<path d="M21.2587 69.8652C11.1119 86.7551 4.59447 105.571 2.12128 125.116C-0.351906 144.661 1.27331 164.507 6.89348 183.39L116.825 150.706C115.744 147.074 115.431 143.258 115.907 139.499C116.383 135.741 117.636 132.122 119.587 128.874L21.2587 69.8652Z" fill="url(#paint8_linear_1_1473)" stroke="url(#paint9_linear_1_1473)"/>
<g filter="url(#filter0_d_1_1473)">
<path d="M282.193 91.9716C283.743 91.3837 284.525 89.6496 283.907 88.1116C278.458 74.5334 271.179 61.7623 262.272 50.1524C261.264 48.8384 259.375 48.6267 258.079 49.6585L161.196 126.816C159.9 127.848 159.7 129.73 160.602 131.12C161.253 132.121 161.845 133.16 162.375 134.23C163.11 135.714 164.829 136.501 166.378 135.914L282.193 91.9716Z" fill="url(#paint10_linear_1_1473)" stroke="url(#paint11_linear_1_1473)"/>
</g>
<path d="M111.522 5.44641C92.9923 9.68138 75.5136 17.5748 60.1295 28.6554C44.7454 39.736 31.7716 53.7764 21.9828 69.9382L119.982 128.272C121.865 125.164 124.36 122.464 127.318 120.333C130.277 118.203 133.638 116.685 137.201 115.87L111.522 5.44641Z" fill="url(#paint12_linear_1_1473)" stroke="url(#paint13_linear_1_1473)"/>
<path fill-rule="evenodd" clip-rule="evenodd" d="M142.763 285C115.18 285 88.1908 277.016 65.0718 262.016L65.2774 261.701C60.2455 258.412 55.4276 254.807 50.8529 250.907L50.853 250.907C29.9832 233.117 14.7153 209.667 6.89444 183.39L116.826 150.706C118.33 155.759 121.266 160.269 125.279 163.69L125.279 163.69C126.175 164.453 127.119 165.158 128.105 165.8L127.989 165.979C132.398 168.794 137.525 170.292 142.763 170.292V285Z" fill="url(#paint14_linear_1_1473)"/>
<path d="M65.0718 262.016L64.6531 261.743L64.379 262.163L64.7997 262.436L65.0718 262.016ZM142.763 285V285.5H143.263V285H142.763ZM65.2774 261.701L65.6961 261.975L65.9692 261.556L65.5509 261.283L65.2774 261.701ZM50.8529 250.907L50.4659 250.591L50.1556 250.97L50.5285 251.288L50.8529 250.907ZM50.853 250.907L51.24 251.224L51.5503 250.845L51.1774 250.527L50.853 250.907ZM6.89444 183.39L6.75195 182.911L6.27254 183.053L6.41522 183.533L6.89444 183.39ZM116.826 150.706L117.305 150.563L117.162 150.084L116.683 150.227L116.826 150.706ZM125.279 163.69L125.66 164.014L125.984 163.634L125.604 163.309L125.279 163.69ZM125.279 163.69L124.899 163.366L124.574 163.746L124.955 164.071L125.279 163.69ZM128.105 165.8L128.524 166.073L128.797 165.653L128.378 165.381L128.105 165.8ZM127.989 165.979L127.57 165.706L127.294 166.129L127.719 166.4L127.989 165.979ZM142.763 170.292H143.263V169.792H142.763V170.292ZM64.7997 262.436C87.9998 277.488 115.084 285.5 142.763 285.5V284.5C115.277 284.5 88.3819 276.544 65.3439 261.597L64.7997 262.436ZM64.8587 261.428L64.6531 261.743L65.4905 262.29L65.6961 261.975L64.8587 261.428ZM65.5509 261.283C60.5368 258.005 55.7359 254.413 51.1772 250.527L50.5285 251.288C55.1194 255.201 59.9542 258.819 65.0038 262.12L65.5509 261.283ZM51.2398 251.224L51.24 251.224L50.466 250.591L50.4659 250.591L51.2398 251.224ZM51.1774 250.527C30.3811 232.799 15.1669 209.432 7.37366 183.247L6.41522 183.533C14.2636 209.902 29.5854 233.435 50.5286 251.288L51.1774 250.527ZM7.03693 183.869L116.968 151.185L116.683 150.227L6.75195 182.911L7.03693 183.869ZM116.346 150.848C117.878 155.994 120.868 160.587 124.955 164.07L125.604 163.309C121.664 159.951 118.781 155.524 117.305 150.563L116.346 150.848ZM124.899 163.366L124.899 163.366L125.66 164.014L125.66 164.014L124.899 163.366ZM124.955 164.071C125.867 164.848 126.828 165.566 127.833 166.219L128.378 165.381C127.409 164.751 126.483 164.059 125.603 163.31L124.955 164.071ZM127.686 165.527L127.57 165.706L128.408 166.252L128.524 166.073L127.686 165.527ZM142.763 169.792C137.62 169.792 132.586 168.322 128.258 165.557L127.719 166.4C132.209 169.267 137.43 170.792 142.763 170.792V169.792ZM143.263 285V170.292H142.263V285H143.263Z" fill="url(#paint15_linear_1_1473)"/>
<defs>
<filter id="filter0_d_1_1473" x="145.548" y="41.506" width="155.071" height="118.104" filterUnits="userSpaceOnUse" color-interpolation-filters="sRGB">
<feFlood flood-opacity="0" result="BackgroundImageFix"/>
<feColorMatrix in="SourceAlpha" type="matrix" values="0 0 0 0 0 0 0 0 0 0 0 0 0 0 0 0 0 0 127 0" result="hardAlpha"/>
<feOffset dx="1" dy="8"/>
<feGaussianBlur stdDeviation="7.5"/>
<feComposite in2="hardAlpha" operator="out"/>
<feColorMatrix type="matrix" values="0 0 0 0 0 0 0 0 0 0 0 0 0 0 0 0 0 0 0.15 0"/>
<feBlend mode="normal" in2="BackgroundImageFix" result="effect1_dropShadow_1_1473"/>
<feBlend mode="normal" in="SourceGraphic" in2="effect1_dropShadow_1_1473" result="shape"/>
</filter>
<linearGradient id="paint0_linear_1_1473" x1="263.037" y1="140.268" x2="146.499" y2="223.816" gradientUnits="userSpaceOnUse">
<stop stop-color="#FF800B" stop-opacity="0.88"/>
<stop offset="1" stop-color="#FFE60A"/>
</linearGradient>
<linearGradient id="paint1_linear_1_1473" x1="268.15" y1="220.334" x2="142.999" y2="220.334" gradientUnits="userSpaceOnUse">
<stop stop-color="#9D9595"/>
<stop offset="1" stop-color="#E1E1E1"/>
</linearGradient>
<linearGradient id="paint2_linear_1_1473" x1="220.811" y1="172.838" x2="217.142" y2="181.555" gradientUnits="userSpaceOnUse">
<stop stop-color="#930AFF"/>
<stop offset="1" stop-color="#B76DF1"/>
</linearGradient>
<linearGradient id="paint3_linear_1_1473" x1="275.186" y1="181.436" x2="167.066" y2="181.436" gradientUnits="userSpaceOnUse">
<stop stop-color="#9D9595"/>
<stop offset="1" stop-color="#E1E1E1"/>
</linearGradient>
<linearGradient id="paint4_linear_1_1473" x1="240.547" y1="177.884" x2="222.206" y2="111.822" gradientUnits="userSpaceOnUse">
<stop stop-color="#09A6EA"/>
<stop offset="1" stop-color="#00DFFE"/>
</linearGradient>
<linearGradient id="paint5_linear_1_1473" x1="284.999" y1="143.66" x2="168.42" y2="143.66" gradientUnits="userSpaceOnUse">
<stop stop-color="#9D9595"/>
<stop offset="1" stop-color="#E1E1E1"/>
</linearGradient>
<linearGradient id="paint6_linear_1_1473" x1="219.893" y1="84.3028" x2="122.614" y2="31.505" gradientUnits="userSpaceOnUse">
<stop stop-color="#4122FF"/>
<stop offset="1" stop-color="#8B78FF"/>
</linearGradient>
<linearGradient id="paint7_linear_1_1473" x1="254.054" y1="63.4576" x2="111.099" y2="63.4576" gradientUnits="userSpaceOnUse">
<stop stop-color="#9D9595"/>
<stop offset="1" stop-color="#E1E1E1"/>
</linearGradient>
<linearGradient id="paint8_linear_1_1473" x1="74.397" y1="101.276" x2="75.7725" y2="167.792" gradientUnits="userSpaceOnUse">
<stop stop-color="#50AF05"/>
<stop offset="1" stop-color="#73FF04"/>
</linearGradient>
<linearGradient id="paint9_linear_1_1473" x1="119.587" y1="126.628" x2="0.999092" y2="126.628" gradientUnits="userSpaceOnUse">
<stop stop-color="#9D9595"/>
<stop offset="1" stop-color="#E1E1E1"/>
</linearGradient>
<linearGradient id="paint10_linear_1_1473" x1="216.022" y1="85.1991" x2="230.563" y2="118.451" gradientUnits="userSpaceOnUse">
<stop stop-color="#F48D14"/>
<stop offset="1" stop-color="#FF6099"/>
</linearGradient>
<linearGradient id="paint11_linear_1_1473" x1="284.999" y1="92.384" x2="158.848" y2="92.384" gradientUnits="userSpaceOnUse">
<stop stop-color="#9D9595"/>
<stop offset="1" stop-color="#E1E1E1"/>
</linearGradient>
<linearGradient id="paint12_linear_1_1473" x1="120.23" y1="51.5591" x2="57.4864" y2="97.8805" gradientUnits="userSpaceOnUse">
<stop stop-color="#EF06AE"/>
<stop offset="1" stop-color="#FF9AE3"/>
</linearGradient>
<linearGradient id="paint13_linear_1_1473" x1="137.201" y1="66.8594" x2="21.9828" y2="66.8594" gradientUnits="userSpaceOnUse">
<stop stop-color="#9D9595"/>
<stop offset="1" stop-color="#E1E1E1"/>
</linearGradient>
<linearGradient id="paint14_linear_1_1473" x1="212.548" y1="195.849" x2="139.513" y2="76.797" gradientUnits="userSpaceOnUse">
<stop stop-color="#9A9A9A"/>
<stop offset="1" stop-color="#DCDCDC"/>
</linearGradient>
<linearGradient id="paint15_linear_1_1473" x1="142.763" y1="217.853" x2="6.89449" y2="217.853" gradientUnits="userSpaceOnUse">
<stop stop-color="#9D9595"/>
<stop offset="1" stop-color="#E1E1E1"/>
</linearGradient>
</defs>
</svg>
