<svg width="158" height="38" viewBox="0 0 158 38" fill="none" xmlns="http://www.w3.org/2000/svg">
<path d="M155 21.4653C156.381 21.4653 157.5 20.346 157.5 18.9653C157.5 17.5846 156.381 16.4653 155 16.4653L155 21.4653ZM1.23273 17.1976C0.256409 18.1739 0.256409 19.7568 1.23273 20.7331L17.1426 36.643C18.1189 37.6193 19.7018 37.6193 20.6782 36.643C21.6545 35.6667 21.6545 34.0838 20.6782 33.1075L6.53603 18.9653L20.6782 4.82318C21.6545 3.84687 21.6545 2.26396 20.6782 1.28765C19.7018 0.31134 18.1189 0.31134 17.1426 1.28765L1.23273 17.1976ZM155 16.4653L3.00049 16.4653L3.00049 21.4653L155 21.4653L155 16.4653Z" fill="url(#paint0_linear_1_1160)"/>
<defs>
<linearGradient id="paint0_linear_1_1160" x1="1.50049" y1="18.9655" x2="162.5" y2="18.9653" gradientUnits="userSpaceOnUse">
<stop stop-color="#6100FF"/>
<stop offset="0.934968" stop-color="#0038FF" stop-opacity="0"/>
</linearGradient>
</defs>
</svg>
