<svg width="158" height="38" viewBox="0 0 158 38" fill="none" xmlns="http://www.w3.org/2000/svg">
<path d="M3.00049 16.4711C1.61978 16.4711 0.500488 17.5904 0.500488 18.9711C0.500488 20.3518 1.61978 21.4711 3.00049 21.4711L3.00049 16.4711ZM156.768 20.7388C157.745 19.7625 157.745 18.1796 156.768 17.2033L140.858 1.29341C139.882 0.317101 138.299 0.317101 137.323 1.29341C136.347 2.26972 136.347 3.85263 137.323 4.82895L151.465 18.9711L137.323 33.1132C136.347 34.0895 136.347 35.6724 137.323 36.6488C138.299 37.6251 139.882 37.6251 140.858 36.6488L156.768 20.7388ZM3.00049 21.4711L155 21.4711L155 16.4711L3.00049 16.4711L3.00049 21.4711Z" fill="url(#paint0_linear_1_1159)"/>
<defs>
<linearGradient id="paint0_linear_1_1159" x1="156.5" y1="18.9709" x2="-4.49951" y2="18.9711" gradientUnits="userSpaceOnUse">
<stop stop-color="#6100FF"/>
<stop offset="0.934968" stop-color="#0038FF" stop-opacity="0"/>
</linearGradient>
</defs>
</svg>
