<svg width="48" height="49" viewBox="0 0 48 49" fill="none" xmlns="http://www.w3.org/2000/svg">
<path d="M41.5 7.43838H35.8125V4.81338C35.8127 4.46528 35.6747 4.13135 35.4287 3.88504C35.1827 3.63874 34.849 3.50023 34.5009 3.5C34.1528 3.49977 33.8188 3.63783 33.5725 3.8838C33.3262 4.12978 33.1877 4.46353 33.1875 4.81163V7.43838H25.3125V4.81338C25.3126 4.64102 25.2788 4.47032 25.2129 4.31104C25.1471 4.15175 25.0505 4.007 24.9287 3.88504C24.8069 3.76308 24.6623 3.66631 24.5031 3.60024C24.3439 3.53418 24.1732 3.50012 24.0009 3.5C23.6528 3.49977 23.3188 3.63783 23.0725 3.8838C22.8262 4.12978 22.6877 4.46353 22.6875 4.81163V7.43838H14.8125V4.81338C14.8126 4.64102 14.7788 4.47032 14.7129 4.31104C14.6471 4.15175 14.5505 4.007 14.4287 3.88504C14.3069 3.76308 14.1623 3.66631 14.0031 3.60024C13.8439 3.53418 13.6732 3.50012 13.5009 3.5C13.1528 3.49977 12.8188 3.63783 12.5725 3.8838C12.3262 4.12978 12.1877 4.46353 12.1875 4.81163V7.43838H6.5C5.57205 7.43838 4.68207 7.80688 4.02574 8.46288C3.36942 9.11888 3.00046 10.0087 3 10.9366V41.9991C3 42.9274 3.36875 43.8176 4.02513 44.474C4.6815 45.1304 5.57174 45.4991 6.5 45.4991H41.5C42.4283 45.4991 43.3185 45.1304 43.9749 44.474C44.6312 43.8176 45 42.9274 45 41.9991V10.9366C44.9995 10.0087 44.6306 9.11888 43.9743 8.46288C43.3179 7.80688 42.428 7.43838 41.5 7.43838ZM42.375 42.0009C42.375 42.2326 42.2831 42.4549 42.1193 42.619C41.9556 42.783 41.7335 42.8754 41.5017 42.8759H6.5C6.26794 42.8759 6.04538 42.7837 5.88128 42.6196C5.71719 42.4555 5.625 42.2329 5.625 42.0009V10.9384C5.62546 10.7066 5.71786 10.4845 5.8819 10.3208C6.04594 10.1571 6.26824 10.0651 6.5 10.0651H12.1875V12.6901C12.1873 13.0382 12.3253 13.3722 12.5713 13.6185C12.8173 13.8648 13.151 14.0033 13.4991 14.0035C13.8472 14.0037 14.1812 13.8657 14.4275 13.6197C14.6738 13.3737 14.8123 13.04 14.8125 12.6919V10.0651H22.6875V12.6901C22.6873 13.0382 22.8253 13.3722 23.0713 13.6185C23.3173 13.8648 23.651 14.0033 23.9991 14.0035C24.3472 14.0037 24.6812 13.8657 24.9275 13.6197C25.1738 13.3737 25.3123 13.04 25.3125 12.6919V10.0651H33.1875V12.6901C33.1873 13.0382 33.3253 13.3722 33.5713 13.6185C33.8173 13.8648 34.151 14.0033 34.4991 14.0035C34.8472 14.0037 35.1812 13.8657 35.4275 13.6197C35.6738 13.3737 35.8123 13.04 35.8125 12.6919V10.0651H41.5C41.7315 10.0656 41.9533 10.1577 42.117 10.3214C42.2806 10.4851 42.3728 10.7069 42.3733 10.9384L42.375 42.0009Z" fill="black"/>
<path d="M12 19.5H17.25V23.4375H12V19.5ZM12 26.0625H17.25V30H12V26.0625ZM12 32.625H17.25V36.5625H12V32.625ZM21.1875 32.625H26.4375V36.5625H21.1875V32.625ZM21.1875 26.0625H26.4375V30H21.1875V26.0625ZM21.1875 19.5H26.4375V23.4375H21.1875V19.5ZM30.375 32.625H35.625V36.5625H30.375V32.625ZM30.375 26.0625H35.625V30H30.375V26.0625ZM30.375 19.5H35.625V23.4375H30.375V19.5Z" fill="black"/>
</svg>
