<svg width="48" height="43" viewBox="0 0 48 43" fill="none" xmlns="http://www.w3.org/2000/svg">
<path d="M15.0013 0.5C13.8193 0.5 12.6488 0.757296 11.5568 1.2572C10.4648 1.7571 9.47256 2.48982 8.63676 3.41352C7.80096 4.33721 7.13797 5.4338 6.68564 6.64068C6.23331 7.84755 6.0005 9.14106 6.0005 10.4474C6.0005 11.7537 6.23331 13.0472 6.68564 14.2541C7.13797 15.4609 7.80096 16.5575 8.63676 17.4812C9.47256 18.4049 10.4648 19.1376 11.5568 19.6375C12.6488 20.1374 13.8193 20.3947 15.0013 20.3947C17.3884 20.3947 19.6778 19.3467 21.3657 17.4812C23.0537 15.6157 24.002 13.0856 24.002 10.4474C24.002 7.80916 23.0537 5.27901 21.3657 3.41352C19.6778 1.54802 17.3884 0.5 15.0013 0.5ZM9.00075 10.4474C9.00075 9.5765 9.15596 8.71415 9.45751 7.90957C9.75906 7.10499 10.2011 6.37393 10.7583 5.75813C11.3155 5.14233 11.9769 4.65386 12.705 4.32059C13.433 3.98732 14.2133 3.81579 15.0013 3.81579C15.7892 3.81579 16.5695 3.98732 17.2975 4.32059C18.0256 4.65386 18.687 5.14233 19.2442 5.75813C19.8014 6.37393 20.2434 7.10499 20.545 7.90957C20.8465 8.71415 21.0017 9.5765 21.0017 10.4474C21.0017 12.2062 20.3696 13.8929 19.2442 15.1366C18.1189 16.3803 16.5927 17.0789 15.0013 17.0789C13.4098 17.0789 11.8836 16.3803 10.7583 15.1366C9.63294 13.8929 9.00075 12.2062 9.00075 10.4474ZM36.003 4.92105C34.1463 4.92105 32.3657 5.73618 31.0528 7.18712C29.74 8.63806 29.0024 10.606 29.0024 12.6579C29.0024 14.7098 29.74 16.6777 31.0528 18.1287C32.3657 19.5796 34.1463 20.3947 36.003 20.3947C37.8597 20.3947 39.6403 19.5796 40.9532 18.1287C42.266 16.6777 43.0036 14.7098 43.0036 12.6579C43.0036 10.606 42.266 8.63806 40.9532 7.18712C39.6403 5.73618 37.8597 4.92105 36.003 4.92105ZM32.0027 12.6579C32.0027 11.4854 32.4241 10.3608 33.1743 9.53174C33.9245 8.70263 34.942 8.23684 36.003 8.23684C37.064 8.23684 38.0815 8.70263 38.8317 9.53174C39.5819 10.3608 40.0033 11.4854 40.0033 12.6579C40.0033 13.8304 39.5819 14.9549 38.8317 15.784C38.0815 16.6132 37.064 17.0789 36.003 17.0789C34.942 17.0789 33.9245 16.6132 33.1743 15.784C32.4241 14.9549 32.0027 13.8304 32.0027 12.6579ZM0 29.7895C0 28.4704 0.474145 27.2053 1.31813 26.2725C2.16211 25.3398 3.3068 24.8158 4.50037 24.8158H25.5021C26.6957 24.8158 27.8404 25.3398 28.6844 26.2725C29.5284 27.2053 30.0025 28.4704 30.0025 29.7895V30.9633C29.9999 31.1421 29.9886 31.3207 29.9685 31.4982C29.9234 31.9542 29.8499 32.4062 29.7485 32.8511C29.4178 34.3026 28.8282 35.6666 28.0143 36.8632C25.9862 39.854 22.1178 42.5 15.0013 42.5C7.88466 42.5 4.01633 39.854 1.98817 36.8632C1.17501 35.6665 0.586127 34.3025 0.256021 32.8511C0.125426 32.2732 0.041754 31.6836 0.00600054 31.0893C0.00350789 31.0473 0.00150751 31.0053 0 30.9633V29.7895ZM3.00025 30.8837V30.9235L3.01825 31.1445C3.03825 31.3523 3.07826 31.664 3.16626 32.0464C3.39946 33.0689 3.8142 34.0299 4.38636 34.8737C5.73448 36.8565 8.61672 39.1842 15.0013 39.1842C21.3858 39.1842 24.268 36.8565 25.6141 34.8737C26.3142 33.8436 26.6622 32.8135 26.8342 32.0464C26.9182 31.678 26.9738 31.3023 27.0002 30.9235L27.0023 30.8837V29.7895C27.0023 29.3498 26.8442 28.9281 26.5629 28.6172C26.2815 28.3062 25.9 28.1316 25.5021 28.1316H4.50037C4.10252 28.1316 3.72095 28.3062 3.43963 28.6172C3.1583 28.9281 3.00025 29.3498 3.00025 29.7895V30.8837ZM30.2025 37.2389C31.7486 37.7628 33.6568 38.0789 35.999 38.0789C41.5395 38.0789 44.6357 36.3194 46.3179 34.1973C46.9905 33.3575 47.4888 32.3654 47.778 31.2904C47.8922 30.8564 47.9653 30.4104 47.996 29.9597L48 29.8558V29.7895C48 28.4704 47.5259 27.2053 46.6819 26.2725C45.8379 25.3398 44.6932 24.8158 43.4996 24.8158H30.1905C30.9786 25.7243 31.5546 26.8627 31.8267 28.1316H43.5016C43.896 28.1315 44.2746 28.3032 44.5554 28.6093C44.8361 28.9155 44.9965 29.3315 45.0018 29.7674C44.984 29.968 44.9492 30.1664 44.8977 30.3598C44.7304 30.9722 44.4437 31.5366 44.0577 32.0133C43.1156 33.2069 40.9634 34.7632 35.999 34.7632C34.1168 34.7632 32.6387 34.5399 31.4766 34.1951C31.1683 35.2644 30.7403 36.287 30.2025 37.2389Z" fill="black"/>
</svg>
