<svg width="43" height="45" viewBox="0 0 43 45" fill="none" xmlns="http://www.w3.org/2000/svg">
<path d="M12.7892 37.4512L9.96875 42.642" stroke="black" stroke-width="3" stroke-linecap="round" stroke-linejoin="round"/>
<path d="M29.7164 37.4512L32.5369 42.642" stroke="black" stroke-width="3" stroke-linecap="round" stroke-linejoin="round"/>
<path d="M21.2528 39.7648C30.6009 39.7648 38.179 32.0351 38.179 22.5001C38.179 12.965 30.6009 5.23535 21.2528 5.23535C11.9048 5.23535 4.32666 12.965 4.32666 22.5001C4.32666 32.0351 11.9048 39.7648 21.2528 39.7648Z" stroke="black" stroke-width="3" stroke-linecap="round" stroke-linejoin="round"/>
<path d="M4.89303 17.8977C3.59358 16.9042 2.60179 15.5504 2.036 13.9978C1.47021 12.4451 1.35432 10.7592 1.70215 9.14126C2.04998 7.52329 2.84685 6.04155 3.99767 4.87286C5.14849 3.70417 6.60467 2.89788 8.19243 2.55021C9.7802 2.20253 11.4325 2.32815 12.9522 2.91207C14.4719 3.496 15.7948 4.51357 16.763 5.84336" stroke="black" stroke-width="3" stroke-linecap="round" stroke-linejoin="round"/>
<path d="M21.2528 5.23535L21.2529 2.35791" stroke="black" stroke-width="3" stroke-linecap="round" stroke-linejoin="round"/>
<path d="M21.2528 13.8677V22.5" stroke="black" stroke-width="3" stroke-linecap="round" stroke-linejoin="round"/>
<path d="M21.2528 22.5L27.2371 28.604" stroke="black" stroke-width="3" stroke-linecap="round" stroke-linejoin="round"/>
<path d="M37.6127 17.8977C38.9121 16.9042 39.9039 15.5504 40.4697 13.9978C41.0355 12.4451 41.1514 10.7592 40.8036 9.14126C40.4557 7.52329 39.6589 6.04155 38.508 4.87286C37.3572 3.70417 35.901 2.89788 34.3133 2.55021C32.7255 2.20253 31.0732 2.32815 29.5535 2.91207C28.0338 3.496 26.7109 4.51357 25.7427 5.84336" stroke="black" stroke-width="3" stroke-linecap="round" stroke-linejoin="round"/>
</svg>
