<svg width="331" height="40" viewBox="0 0 331 40" fill="none" xmlns="http://www.w3.org/2000/svg">
<path d="M0.878179 39V1.18182H25.918V7.77415H8.87392V16.7855H24.256V23.3778H8.87392V39H0.878179ZM43.4519 1.18182V39H35.4562V1.18182H43.4519ZM52.75 7.77415V1.18182H83.8097V7.77415H72.2316V39H64.3282V7.77415H52.75ZM109.28 1.18182H119.141L129.555 26.5909H129.999L140.413 1.18182H150.274V39H142.519V14.3849H142.205L132.418 38.8153H127.136L117.35 14.2926H117.036V39H109.28V1.18182ZM169.018 1.18182V39H161.022V1.18182H169.018ZM179.756 39V1.18182H194.677C197.533 1.18182 199.97 1.69271 201.989 2.71449C204.02 3.72396 205.565 5.15814 206.624 7.01705C207.695 8.86364 208.231 11.0365 208.231 13.5355C208.231 16.0469 207.689 18.2074 206.606 20.017C205.522 21.8144 203.953 23.1932 201.897 24.1534C199.853 25.1136 197.379 25.5938 194.473 25.5938H184.483V19.1676H193.181C194.707 19.1676 195.975 18.9583 196.985 18.5398C197.994 18.1212 198.745 17.4934 199.238 16.6562C199.742 15.8191 199.995 14.7789 199.995 13.5355C199.995 12.2798 199.742 11.2211 199.238 10.3594C198.745 9.49763 197.988 8.84517 196.966 8.40199C195.957 7.9465 194.683 7.71875 193.144 7.71875H187.752V39H179.756ZM200.179 21.7898L209.579 39H200.752L191.556 21.7898H200.179ZM218.041 39V1.18182H232.962C235.818 1.18182 238.255 1.69271 240.274 2.71449C242.305 3.72396 243.85 5.15814 244.909 7.01705C245.98 8.86364 246.516 11.0365 246.516 13.5355C246.516 16.0469 245.974 18.2074 244.891 20.017C243.807 21.8144 242.238 23.1932 240.182 24.1534C238.138 25.1136 235.664 25.5938 232.758 25.5938H222.768V19.1676H231.466C232.992 19.1676 234.26 18.9583 235.27 18.5398C236.279 18.1212 237.03 17.4934 237.523 16.6562C238.027 15.8191 238.28 14.7789 238.28 13.5355C238.28 12.2798 238.027 11.2211 237.523 10.3594C237.03 9.49763 236.273 8.84517 235.251 8.40199C234.242 7.9465 232.968 7.71875 231.429 7.71875H226.037V39H218.041ZM238.464 21.7898L247.864 39H239.037L229.841 21.7898H238.464ZM291.079 20.0909C291.079 24.215 290.297 27.7235 288.734 30.6165C287.183 33.5095 285.065 35.7192 282.382 37.2457C279.71 38.7599 276.706 39.517 273.37 39.517C270.009 39.517 266.993 38.7538 264.322 37.2273C261.65 35.7008 259.539 33.491 257.988 30.598C256.437 27.705 255.661 24.2027 255.661 20.0909C255.661 15.9669 256.437 12.4583 257.988 9.56534C259.539 6.67235 261.65 4.46875 264.322 2.95455C266.993 1.42803 270.009 0.664771 273.37 0.664771C276.706 0.664771 279.71 1.42803 282.382 2.95455C285.065 4.46875 287.183 6.67235 288.734 9.56534C290.297 12.4583 291.079 15.9669 291.079 20.0909ZM282.972 20.0909C282.972 17.4195 282.572 15.1667 281.772 13.3324C280.984 11.4981 279.87 10.107 278.43 9.15909C276.989 8.21117 275.303 7.73722 273.37 7.73722C271.437 7.73722 269.751 8.21117 268.311 9.15909C266.87 10.107 265.75 11.4981 264.95 13.3324C264.162 15.1667 263.768 17.4195 263.768 20.0909C263.768 22.7623 264.162 25.0152 264.95 26.8494C265.75 28.6837 266.87 30.0748 268.311 31.0227C269.751 31.9706 271.437 32.4446 273.37 32.4446C275.303 32.4446 276.989 31.9706 278.43 31.0227C279.87 30.0748 280.984 28.6837 281.772 26.8494C282.572 25.0152 282.972 22.7623 282.972 20.0909ZM301.162 39V1.18182H316.082C318.938 1.18182 321.376 1.69271 323.395 2.71449C325.426 3.72396 326.971 5.15814 328.03 7.01705C329.101 8.86364 329.636 11.0365 329.636 13.5355C329.636 16.0469 329.095 18.2074 328.011 20.017C326.928 21.8144 325.358 23.1932 323.303 24.1534C321.259 25.1136 318.785 25.5938 315.879 25.5938H305.889V19.1676H314.587C316.113 19.1676 317.381 18.9583 318.391 18.5398C319.4 18.1212 320.151 17.4934 320.643 16.6562C321.148 15.8191 321.401 14.7789 321.401 13.5355C321.401 12.2798 321.148 11.2211 320.643 10.3594C320.151 9.49763 319.394 8.84517 318.372 8.40199C317.363 7.9465 316.089 7.71875 314.55 7.71875H309.158V39H301.162ZM321.585 21.7898L330.984 39H322.158L312.962 21.7898H321.585Z" fill="url(#paint0_linear_1_38)"/>
<defs>
<linearGradient id="paint0_linear_1_38" x1="131" y1="12.625" x2="131" y2="31.75" gradientUnits="userSpaceOnUse">
<stop stop-color="#14125F"/>
<stop offset="1" stop-color="#1E1C75" stop-opacity="0.21"/>
</linearGradient>
</defs>
</svg>
